<svg width="128" height="21" viewBox="0 0 128 21" fill="none" xmlns="http://www.w3.org/2000/svg">
<rect opacity="0.2" x="0.18811" y="0.131958" width="28" height="20" rx="10" fill="white"/>
<rect opacity="0.2" x="33.1881" y="0.131958" width="28" height="20" rx="10" fill="white"/>
<rect opacity="0.2" x="66.1881" width="28" height="20" rx="10" fill="white"/>
<path d="M9.60702 15.5513L6.27102 7.18727H7.43502L10.171 14.2673H9.87102L12.571 7.18727H13.735L10.423 15.5513H9.60702ZM17.9359 15.6953C17.1839 15.6953 16.5199 15.5153 15.9439 15.1553C15.3759 14.7953 14.9319 14.2913 14.6119 13.6433C14.2919 12.9873 14.1319 12.2273 14.1319 11.3633C14.1319 10.4993 14.2919 9.74327 14.6119 9.09527C14.9399 8.44727 15.3919 7.94327 15.9679 7.58327C16.5519 7.22327 17.2279 7.04327 17.9959 7.04327C18.8359 7.04327 19.5639 7.25127 20.1799 7.66727C20.7959 8.08327 21.2399 8.65927 21.5119 9.39527L20.5279 9.76727C20.3199 9.22327 19.9999 8.80327 19.5679 8.50727C19.1359 8.20327 18.6119 8.05127 17.9959 8.05127C17.4279 8.05127 16.9319 8.18727 16.5079 8.45927C16.0839 8.73127 15.7559 9.11527 15.5239 9.61127C15.2999 10.0993 15.1879 10.6833 15.1879 11.3633C15.1879 12.0433 15.2999 12.6313 15.5239 13.1273C15.7559 13.6233 16.0839 14.0073 16.5079 14.2793C16.9319 14.5513 17.4279 14.6873 17.9959 14.6873C18.2839 14.6873 18.5799 14.6473 18.8839 14.5673C19.1879 14.4873 19.4679 14.3473 19.7239 14.1473C19.9799 13.9473 20.1839 13.6753 20.3359 13.3313C20.4959 12.9793 20.5759 12.5353 20.5759 11.9993V11.3873L20.8159 12.1073H18.4639V11.1593H21.5119V15.5513H20.5759L20.4319 13.9193L20.6119 14.0513C20.4679 14.4353 20.2599 14.7473 19.9879 14.9873C19.7159 15.2273 19.3999 15.4073 19.0399 15.5273C18.6879 15.6393 18.3199 15.6953 17.9359 15.6953Z" fill="white"/>
<path d="M40.6888 15.5513V7.18727H41.8048L46.0888 14.1833H45.8488V7.18727H46.9048V15.5513H45.7648L41.5048 8.54327H41.7448V15.5513H40.6888ZM48.7982 15.5513V7.18727H54.2822V8.13527H49.8542V10.8113H53.6942V11.7593H49.8542V15.5513H48.7982Z" fill="white"/>
<rect opacity="0.2" x="99.1881" y="0.131958" width="28" height="20" rx="10" fill="white"/>
<path d="M110.07 15.5513V7.18727H111.126V10.7753H115.254V7.18727H116.31V15.5513H115.254V11.7593H111.126V15.5513H110.07Z" fill="white"/>
</svg>
