<svg width="96" height="48" viewBox="0 0 96 48" fill="none" xmlns="http://www.w3.org/2000/svg">
<g id="Group 14">
<path id="Fill 1" fill-rule="evenodd" clip-rule="evenodd" d="M24.9133 10.8993H14.4859V13.989H21.8719C21.51 18.3337 17.8893 20.168 14.4859 20.168C10.117 20.168 6.32742 16.7406 6.32742 11.9371C6.32742 7.25451 9.94793 3.65807 14.4859 3.65807C17.9857 3.65807 20.0617 5.90283 20.0617 5.90283L22.234 3.65807C22.234 3.65807 19.4583 0.568359 14.3893 0.568359C7.94458 0.568359 2.94815 6.02354 2.94815 11.889C2.94815 17.6578 7.65485 23.2818 14.5583 23.2818C20.6409 23.2818 25.0823 19.1061 25.0823 12.9509C25.0823 11.6476 24.9133 10.8993 24.9133 10.8993Z" fill="white"/>
<path id="Fill 3" fill-rule="evenodd" clip-rule="evenodd" d="M33.4822 11.5267C35.5822 11.5267 37.5856 13.2162 37.5856 15.9681C37.5856 18.6473 35.6063 20.4093 33.4822 20.4093C31.1408 20.4093 29.3065 18.5507 29.3065 15.9681C29.3065 13.4095 31.1168 11.5267 33.4822 11.5267ZM33.4339 8.6543C29.1615 8.6543 26.096 12.0095 26.096 15.8955C26.096 19.8542 29.065 23.2576 33.4822 23.2576C37.4891 23.2576 40.7476 20.1921 40.7476 15.9921C40.7717 11.1405 36.9579 8.6543 33.4339 8.6543Z" fill="white"/>
<path id="Fill 5" fill-rule="evenodd" clip-rule="evenodd" d="M49.4612 11.5267C51.5612 11.5267 53.5646 13.2162 53.5646 15.9681C53.5646 18.6473 51.5853 20.4093 49.4612 20.4093C47.1198 20.4093 45.2855 18.5507 45.2855 15.9681C45.2613 13.4095 47.0958 11.5267 49.4612 11.5267ZM49.4128 8.6543C45.1405 8.6543 42.075 12.0095 42.075 15.8955C42.075 19.8542 45.044 23.2576 49.4612 23.2576C53.468 23.2576 56.7266 20.1921 56.7266 15.9921C56.7266 11.1405 52.9128 8.6543 49.4128 8.6543Z" fill="white"/>
<g id="Group 9">
<mask id="mask0_301_6241" style="mask-type:luminance" maskUnits="userSpaceOnUse" x="58" y="8" width="15" height="22">
<path id="Clip 8" fill-rule="evenodd" clip-rule="evenodd" d="M58.0544 8.6543H72.0784V29.823H58.0544V8.6543Z" fill="white"/>
</mask>
<g mask="url(#mask0_301_6241)">
<path id="Fill 7" fill-rule="evenodd" clip-rule="evenodd" d="M65.3443 11.5267C67.2752 11.5267 69.2545 13.1681 69.2545 15.9681C69.2545 18.8162 67.2752 20.3852 65.3202 20.3852C63.2202 20.3852 61.2891 18.6955 61.2891 15.9921C61.265 13.1921 63.2926 11.5267 65.3443 11.5267ZM65.0542 8.6543C61.1199 8.6543 58.0544 12.0819 58.0544 15.9438C58.0544 20.3369 61.6268 23.2576 65.006 23.2576C67.0818 23.2576 68.1922 22.4369 69.0127 21.4714V22.9197C69.0127 25.4299 67.4922 26.9506 65.1749 26.9506C62.9544 26.9506 61.8199 25.2852 61.4337 24.3437L58.6337 25.5266C59.6233 27.6264 61.6268 29.823 65.1991 29.823C69.1094 29.823 72.0784 27.3609 72.0784 22.2197V9.08881H69.0127V10.3198C68.0715 9.33022 66.768 8.6543 65.0542 8.6543Z" fill="white"/>
</g>
</g>
<path id="Fill 10" fill-rule="evenodd" clip-rule="evenodd" d="M85.8127 11.4545C87.1403 11.4545 88.1058 12.1545 88.516 13.0235L81.9748 15.7509C81.6851 13.6268 83.6886 11.4545 85.8127 11.4545ZM85.6678 8.6543C81.9747 8.6543 78.8609 11.5991 78.8609 15.9438C78.8609 20.5542 82.3368 23.2816 86.0299 23.2816C89.1194 23.2816 91.0263 21.5921 92.1366 20.0714L89.6021 18.3818C88.9504 19.3956 87.8402 20.3852 86.0299 20.3852C83.9781 20.3852 83.0368 19.2507 82.4575 18.1645L92.2573 14.1095L91.7504 12.9267C90.809 10.5853 88.5885 8.6543 85.6678 8.6543Z" fill="white"/>
<g id="Group 28">
<g id="5.0">
<path id="Path" d="M4.86483 47.6165C5.73507 47.6165 6.5048 47.4404 7.174 47.088C7.84321 46.7357 8.36737 46.2456 8.74649 45.6177C9.1256 44.9898 9.31516 44.2663 9.31516 43.4471V43.4303C9.31516 42.6575 9.14357 41.9721 8.8004 41.3741C8.45722 40.7761 7.98612 40.3049 7.38708 39.9605C6.78805 39.616 6.10111 39.4438 5.32627 39.4438C4.72842 39.4438 4.18987 39.554 3.71063 39.7744C3.2314 39.9947 2.85471 40.3092 2.58057 40.7177H2.54083L2.91059 36.8879H8.60988V35.2986H1.385L0.788453 42.2828H2.4418C2.517 42.147 2.60383 42.0211 2.70229 41.9051C2.80076 41.7891 2.90521 41.6823 3.01565 41.5846C3.26172 41.3671 3.54399 41.2044 3.86246 41.0964C4.18093 40.9884 4.52598 40.9344 4.89762 40.9344C5.39789 40.9344 5.84099 41.0427 6.22692 41.2592C6.61285 41.4758 6.91653 41.7741 7.13793 42.1541C7.35934 42.5341 7.47005 42.9705 7.47005 43.4631V43.4799C7.47005 43.9818 7.36048 44.4255 7.14134 44.8111C6.92221 45.1968 6.61766 45.4981 6.22771 45.7152C5.83775 45.9323 5.38805 46.0408 4.8786 46.0408C4.4322 46.0408 4.03002 45.9562 3.67207 45.7869C3.31412 45.6177 3.02251 45.3863 2.79726 45.0927C2.572 44.7991 2.43214 44.4711 2.37766 44.1086L2.36769 44.0445H0.567963L0.576357 44.1476C0.633808 44.8096 0.848264 45.4021 1.21973 45.9252C1.59119 46.4482 2.08874 46.8609 2.71239 47.1631C3.33605 47.4654 4.05352 47.6165 4.86483 47.6165Z" fill="white"/>
<path id="Path_2" d="M12.0425 47.5383C12.3521 47.5383 12.6136 47.4316 12.827 47.2182C13.0405 47.0048 13.1472 46.7433 13.1472 46.4337C13.1472 46.124 13.0405 45.8625 12.827 45.649C12.6136 45.4356 12.3521 45.3289 12.0425 45.3289C11.7328 45.3289 11.4713 45.4356 11.2578 45.649C11.0444 45.8625 10.9377 46.124 10.9377 46.4337C10.9377 46.7433 11.0444 47.0048 11.2578 47.2182C11.4713 47.4316 11.7328 47.5383 12.0425 47.5383Z" fill="white"/>
<path id="Shape" fill-rule="evenodd" clip-rule="evenodd" d="M22.0362 46.8523C21.3441 47.3615 20.5161 47.6162 19.5522 47.6162C18.5883 47.6162 17.7612 47.3615 17.0708 46.8523C16.3805 46.343 15.851 45.6208 15.4825 44.6857C15.1141 43.7506 14.9298 42.6418 14.9298 41.3592V41.3424C14.9298 40.0597 15.1141 38.9509 15.4825 38.0158C15.851 37.0807 16.3805 36.3599 17.0708 35.8535C17.7612 35.347 18.5883 35.0938 19.5522 35.0938C20.5161 35.0938 21.3441 35.347 22.0362 35.8535C22.7284 36.3599 23.2595 37.0807 23.6298 38.0158C24 38.9509 24.1851 40.0597 24.1851 41.3424V41.3592C24.1851 42.6418 24 43.7506 23.6298 44.6857C23.2595 45.6208 22.7284 46.343 22.0362 46.8523ZM18.0807 45.4734C18.4869 45.8499 18.9774 46.0382 19.552 46.0382C20.1265 46.0382 20.6177 45.8499 21.0257 45.4734C21.4337 45.0968 21.7454 44.5587 21.9608 43.859C22.1761 43.1593 22.2837 42.326 22.2837 41.3592V41.3424C22.2837 40.3757 22.1761 39.5438 21.9608 38.8469C21.7454 38.1499 21.4337 37.6144 21.0257 37.2401C20.6177 36.8658 20.1265 36.6787 19.552 36.6787C18.9774 36.6787 18.4869 36.8658 18.0807 37.2401C17.6744 37.6144 17.3648 38.1499 17.1518 38.8469C16.9387 39.5438 16.8322 40.3757 16.8322 41.3424V41.3592C16.8322 42.326 16.9387 43.1593 17.1518 43.859C17.3648 44.5587 17.6744 45.0968 18.0807 45.4734Z" fill="white"/>
</g>
<g id="Group 32">
<path id="Star" d="M35.0926 44.0323L34.86 43.91L34.6273 44.0323L31.8568 45.4888L32.3859 42.4038L32.4304 42.1447L32.2421 41.9613L30.0007 39.7764L33.0983 39.3263L33.3584 39.2885L33.4747 39.0528L34.86 36.246L36.2452 39.0528L36.3616 39.2885L36.6217 39.3263L39.7192 39.7764L37.4778 41.9613L37.2896 42.1447L37.334 42.4038L37.8632 45.4888L35.0926 44.0323Z" fill="white" stroke="white"/>
<path id="Star Copy" d="M48.6804 44.032L48.4477 43.9097L48.2151 44.032L45.4445 45.4886L45.9737 42.4036L46.0181 42.1445L45.8299 41.961L43.5885 39.7762L46.686 39.3261L46.9461 39.2883L47.0625 39.0526L48.4477 36.2457L49.833 39.0526L49.9493 39.2883L50.2095 39.3261L53.307 39.7762L51.0656 41.961L50.8774 42.1445L50.9218 42.4036L51.4509 45.4886L48.6804 44.032Z" fill="white" stroke="white"/>
<path id="Star Copy 2" d="M62.2675 44.032L62.0348 43.9097L61.8021 44.032L59.0316 45.4886L59.5607 42.4036L59.6052 42.1445L59.4169 41.961L57.1755 39.7762L60.2731 39.3261L60.5332 39.2883L60.6495 39.0526L62.0348 36.2457L63.42 39.0526L63.5364 39.2883L63.7965 39.3261L66.894 39.7762L64.6526 41.961L64.4644 42.1445L64.5088 42.4036L65.038 45.4886L62.2675 44.032Z" fill="white" stroke="white"/>
<path id="Star Copy 3" d="M75.8549 44.032L75.6222 43.9097L75.3896 44.032L72.619 45.4886L73.1482 42.4036L73.1926 42.1445L73.0044 41.961L70.763 39.7762L73.8605 39.3261L74.1206 39.2883L74.237 39.0526L75.6222 36.2457L77.0075 39.0526L77.1238 39.2883L77.384 39.3261L80.4815 39.7762L78.2401 41.961L78.0519 42.1445L78.0963 42.4036L78.6254 45.4886L75.8549 44.032Z" fill="white" stroke="white"/>
<path id="Star Copy 4" d="M89.4423 44.032L89.2097 43.9097L88.977 44.032L86.2065 45.4886L86.7356 42.4036L86.7801 42.1445L86.5918 41.961L84.3504 39.7762L87.448 39.3261L87.7081 39.2883L87.8244 39.0526L89.2097 36.2457L90.5949 39.0526L90.7113 39.2883L90.9714 39.3261L94.0689 39.7762L91.8275 41.961L91.6393 42.1445L91.6837 42.4036L92.2129 45.4886L89.4423 44.032Z" fill="white" stroke="white"/>
</g>
</g>
<path id="Fill 12" fill-rule="evenodd" clip-rule="evenodd" d="M74.2023 22.8477H77.4125V1.31689H74.2023V22.8477Z" fill="white"/>
</g>
</svg>
